<svg version="1.0" xmlns="http://www.w3.org/2000/svg"
 width="500" height="500" viewBox="0 0 500.000000 500.000000"
 preserveAspectRatio="xMidYMid meet">

<g transform="translate(0.000000,500.000000) scale(0.100000,-0.100000)"
fill="#4f46e5" stroke="none">
<path d="M2555 3999 c-80 -12 -176 -60 -220 -111 -43 -50 -75 -133 -75 -193
l0 -45 360 0 360 0 0 51 c0 78 -19 126 -73 185 -56 62 -127 99 -218 113 -35 6
-66 10 -69 10 -3 -1 -32 -5 -65 -10z"/>
<path d="M1990 3452 c-246 -250 -274 -285 -305 -371 -74 -212 -4 -430 169
-518 l51 -27 570 0 c551 -1 571 -2 604 -21 57 -34 59 -47 18 -96 -37 -42 -37
-44 -36 -128 0 -47 4 -147 8 -221 4 -74 3 -157 -2 -183 -4 -27 -7 -56 -5 -64
2 -11 79 59 225 203 234 230 247 248 279 369 52 193 -47 436 -211 518 -87 43
-138 47 -670 47 -493 0 -503 0 -529 21 -31 25 -33 42 -6 76 19 25 20 39 18
294 -2 148 -5 269 -8 269 -3 0 -79 -76 -170 -168z"/>
<path d="M2330 3572 c-75 -4 -90 -10 -90 -36 0 -12 8 -30 18 -39 17 -15 57
-17 365 -17 301 0 348 2 361 16 21 20 20 48 -1 65 -13 11 -76 14 -312 14 -163
0 -316 -1 -341 -3z"/>
<path d="M2246 3394 c-20 -20 -20 -27 2 -53 17 -22 23 -22 362 -26 294 -4 347
-2 367 10 28 19 30 60 4 75 -13 6 -148 10 -370 10 -304 0 -352 -2 -365 -16z"/>
<path d="M2260 3151 l0 -101 88 0 88 0 -4 93 c-2 50 -5 93 -7 95 -1 1 -39 5
-84 9 l-81 6 0 -102z"/>
<path d="M2603 3243 l-93 -4 0 -94 0 -95 105 0 105 0 0 100 c0 74 -3 99 -12
98 -7 -1 -55 -4 -105 -5z"/>
<path d="M2804 3236 c-3 -7 -4 -53 -2 -102 l3 -89 83 -3 82 -3 0 101 0 100
-42 2 c-24 1 -60 2 -81 4 -23 1 -40 -3 -43 -10z"/>
<path d="M2260 2226 l0 -234 39 -31 c21 -17 43 -31 48 -31 5 0 30 22 56 49
l48 50 -10 57 c-6 32 -11 129 -11 216 l0 158 -85 0 -85 0 0 -234z"/>
<path d="M2515 2450 c-3 -5 -5 -97 -4 -205 2 -180 4 -198 22 -223 32 -42 80
-92 89 -92 5 0 33 24 63 53 53 52 54 53 45 92 -5 22 -10 118 -10 213 l0 172
-99 0 c-55 0 -102 -4 -106 -10z"/>
<path d="M2810 2266 c0 -107 -3 -201 -6 -209 -7 -20 76 -121 103 -125 11 -2
33 8 49 21 l28 24 -2 189 c-1 104 -5 213 -8 242 l-6 52 -79 0 -79 0 0 -194z"/>
<path d="M2221 1923 c4 -46 106 -206 229 -362 47 -59 103 -133 125 -164 22
-31 45 -57 51 -57 6 0 41 39 77 88 37 48 87 113 113 145 25 33 54 73 63 90 10
18 46 77 80 132 33 55 61 103 61 108 0 15 -28 6 -66 -21 -28 -21 -59 -64 -107
-149 -38 -65 -72 -125 -77 -132 -6 -10 -15 -8 -40 10 -44 33 -148 34 -201 3
l-36 -21 -98 149 c-54 82 -109 158 -123 169 -25 19 -53 26 -51 12z"/>
</g>
</svg>